<?xml version="1.0" ?><!DOCTYPE svg  PUBLIC '-//W3C//DTD SVG 1.1//EN'  'http://www.w3.org/Graphics/SVG/1.1/DTD/svg11.dtd'><svg height="100%" style="fill-rule:evenodd;clip-rule:evenodd;stroke-linejoin:round;stroke-miterlimit:2;" version="1.1" viewBox="0 0 24 24" width="100%" xml:space="preserve" xmlns="http://www.w3.org/2000/svg" xmlns:serif="http://www.serif.com/" xmlns:xlink="http://www.w3.org/1999/xlink"><g id="Icon"><path d="M19.75,4.042c0,-0.739 -0.288,-1.447 -0.8,-1.969c-0.517,-0.528 -1.219,-0.823 -1.95,-0.823l-10,0c-0.731,0 -1.433,0.295 -1.95,0.823c-0.512,0.522 -0.8,1.23 -0.8,1.969c0,3.853 -0,12.951 0,16.937c-0,0.692 0.398,1.318 1.013,1.606c0.625,0.294 1.36,0.19 1.882,-0.266l4.698,-4.112c0.09,-0.079 0.224,-0.079 0.314,0l4.698,4.112c0.522,0.456 1.257,0.56 1.882,0.266c0.615,-0.288 1.013,-0.914 1.013,-1.606l-0,-16.937Zm-1.5,-0l-0,16.937c0,0.106 -0.057,0.204 -0.151,0.249c-0.085,0.04 -0.185,0.024 -0.256,-0.038l-4.698,-4.111c-0.659,-0.577 -1.631,-0.577 -2.29,-0l-4.698,4.111c-0.071,0.062 -0.171,0.078 -0.256,0.038c-0.094,-0.045 -0.151,-0.143 -0.151,-0.249l0,-16.937c-0,-0.345 0.133,-0.676 0.372,-0.919c0.233,-0.238 0.548,-0.373 0.878,-0.373c0,0 10,0 10,0c0.33,0 0.645,0.135 0.878,0.373c0.239,0.243 0.372,0.574 0.372,0.919Z"/></g></svg>