<svg viewBox="0 0 100 100" xml:space="preserve" xmlns="http://www.w3.org/2000/svg" enable-background="new 0 0 100 100"><path d="M5268.4 2410.3c-.6 0-1 .4-1 1s.4 1 1 1h4.3c.6 0 1-.4 1-1s-.4-1-1-1h-4.3zM5272.7 2413.7h-4.3c-.6 0-1 .4-1 1s.4 1 1 1h4.3c.6 0 1-.4 1-1s-.4-1-1-1zM5272.7 2417h-4.3c-.6 0-1 .4-1 1s.4 1 1 1h4.3c.6 0 1-.4 1-1 0-.5-.4-1-1-1zM68 50l25.8-25.8c5-5 5-13 0-18s-13-5-18 0L50 32 24.2 6.2c-5-5-13-5-18 0s-5 13 0 18L32 50 6.2 75.8c-5 5-5 13 0 18 2.5 2.5 5.7 3.7 9 3.7s6.5-1.2 9-3.7L50 68l25.8 25.8c2.5 2.5 5.7 3.7 9 3.7s6.5-1.2 9-3.7c5-5 5-13 0-18L68 50z" fill="#ffffff" class="fill-000000"></path></svg>